<?xml version="1.0" standalone="no"?><!DOCTYPE svg PUBLIC "-//W3C//DTD SVG 1.1//EN" "http://www.w3.org/Graphics/SVG/1.1/DTD/svg11.dtd"><svg t="1766507471423" class="icon" viewBox="0 0 1024 1024" version="1.1" xmlns="http://www.w3.org/2000/svg" p-id="6783" xmlns:xlink="http://www.w3.org/1999/xlink" width="64" height="64"><path d="M929.956568 77.249102H94.045152c-37.995817 0-69.661292 31.663754-69.661292 69.65441v557.281732c0 37.990656 31.663754 69.656131 69.661292 69.656131h348.297857v107.655389H265.029769c-19.001349 0-37.997537 12.667566-37.997537 38.002698v25.32481h557.281732V919.499462c0-19.004789-12.667566-38.002698-38.004418-38.002698h-164.649115v-107.655389H929.960009c37.990656 0 69.656131-31.662034 69.656131-69.656131V146.903512c0-37.990656-31.665475-69.654411-69.659572-69.65441zM474.005043 723.181433c0-18.994468 12.665846-37.990656 37.997537-37.990657 18.996188 0 37.997537 12.658965 37.997538 37.990657 0 18.999629-12.665846 37.994097-37.997538 37.994096-18.997909-6.330343-37.997537-18.996188-37.997537-37.994096zM75.043803 640.859456V159.571078c0-18.994468 6.333783-31.663754 31.663754-31.663754h810.584886c25.326531 0 31.662034 12.667566 31.662034 38.000978v474.951154c0 18.996188-6.337223 25.324811-25.333412 25.324811H100.378935c-12.667566 0-25.335132 0-25.335132-25.324811z" p-id="6784"></path><path d="M542.396826 458.918873h-58.540187c0-22.517441 2.248304-40.536555 6.755232-51.795275 6.755232-13.500144 18.013953-27.017489 38.27449-40.526234 18.013953-13.510465 27.019209-27.019209 27.019209-45.033163 0-15.760489-4.501768-27.019209-13.510465-36.024466-6.755232-6.755232-18.010513-9.006977-29.270953-9.006976-13.512185 0-24.769186 4.503488-33.774442 11.25872-9.006977 6.755232-13.510465 20.263977-15.762209 40.527954h-63.041955c0-36.024466 11.258721-63.043675 36.024466-81.055908 20.263977-15.758769 42.779698-22.514001 72.054092-22.514001 36.024466 0 65.295419 9.006977 85.555956 27.017489 20.270858 15.760489 29.276114 40.529674 29.276114 69.798908 0 18.013953-4.501768 33.774442-13.510465 45.033163-6.755232 11.257-20.263977 22.512281-40.526233 36.033067-11.258721 6.744911-18.017394 13.507024-20.269138 20.262256-4.500048 8.998376-6.753512 20.262257-6.753512 36.024466z m4.503488 29.270954v63.040235h-65.29714v-63.040235h65.29714z" p-id="6785"></path></svg>