<?xml version="1.0" standalone="no"?><!DOCTYPE svg PUBLIC "-//W3C//DTD SVG 1.1//EN" "http://www.w3.org/Graphics/SVG/1.1/DTD/svg11.dtd"><svg t="1768411634703" class="icon" viewBox="0 0 1378 1024" version="1.1" xmlns="http://www.w3.org/2000/svg" p-id="29168" xmlns:xlink="http://www.w3.org/1999/xlink" width="269.140625" height="200"><path d="M329.38130926 179.12415869a50.12926804 50.12926804 0 0 0-71.2497214-70.52450015 579.90911463 579.90911463 0 0 0-127.47338498 621.14489016 563.2163226 563.2163226 0 0 0 123.91089945 189.25707185 50.12545139 50.12545139 0 0 0 71.24972057-70.52450098C144.09386447 664.93274855 145.6969837 364.66606663 329.38130926 179.12415869zM1185.7647879 294.25607422a563.39444695 563.39444695 0 0 0-123.91089862-189.26979483 50.12926804 50.12926804 0 1 0-71.2497214 70.53722397c181.72495844 183.544371 180.12184003 483.81105295-3.56248554 669.35296087a50.12926804 50.12926804 0 0 0 71.24972059 70.52450098 579.90911463 579.90911463 0 0 0 127.47338497-621.14489099z" fill="#3A89D8" p-id="29169"></path><path d="M477.73340747 258.46581255a50.10382205 50.10382205 0 0 0-70.88074969 0.35624873c-66.97473761 67.64906524-103.87191522 157.56366879-103.8719144 253.17825019s36.89717678 185.52918494 103.8719144 253.190974a50.12545139 50.12545139 0 0 0 71.2497214-70.52450099c-99.71144001-100.71657037-99.71144001-264.64182166 0-365.30749923a50.11654505 50.11654505 0 0 0-0.36897171-70.8934727zM909.57033383 258.80933829a50.12545139 50.12545139 0 1 0-71.2497214 70.52450097c99.69871702 100.71657037 99.69871702 264.64182166 0 365.30749841a50.12545139 50.12545139 0 1 0 71.24972142 70.52450098c66.97473761-67.64906524 103.87191522-157.56366879 103.87191438-253.19097318s-36.89717678-185.50373813-103.87191438-253.16552718zM658.21149539 371.23121945c-77.11509979 0-139.86574722 63.15778894-139.86574722 140.76909202s62.75064743 140.76909202 139.86574722 140.769092 139.86574722-63.15778894 139.86574723-140.769092-62.75064743-140.76909202-139.86574723-140.76909202z m0 181.27964796c-21.8456738 0-39.60721116-18.16867886-39.60721114-40.51055595s17.81243015-40.52327893 39.60721114-40.52327894 39.60721116 18.18140185 39.60721115 40.52327895-17.76153735 40.51055594-39.60721115 40.51055594z" fill="#3A89D8" p-id="29170"></path></svg>